<?xml version="1.0" standalone="no"?>
<!DOCTYPE svg PUBLIC "-//W3C//DTD SVG 20010904//EN"
 "http://www.w3.org/TR/2001/REC-SVG-20010904/DTD/svg10.dtd">
<svg version="1.0" xmlns="http://www.w3.org/2000/svg"
 width="45px" height="45px" viewBox="0 0 98.000000 96.000000"
 preserveAspectRatio="xMidYMid meet">

<g transform="translate(0.000000,96.000000) scale(0.100000,-0.100000)"
stroke="none">
<path d="M381 924 c-128 -34 -245 -137 -310 -273 -34 -73 -36 -80 -35 -181 0
-83 5 -116 22 -160 43 -109 146 -219 252 -269 47 -22 72 -26 166 -29 104 -3
115 -2 191 27 88 34 152 87 212 175 90 131 104 304 37 451 -30 67 -146 190
-208 221 -104 53 -222 66 -327 38z m214 -58 c259 -69 388 -348 269 -581 -39
-76 -115 -148 -198 -187 -105 -49 -237 -49 -342 0 -173 81 -268 259 -236 442
16 93 48 154 114 216 113 107 256 147 393 110z"/>
<path d="M410 600 c0 -18 -44 -50 -69 -50 -14 0 -37 9 -51 20 -38 30 -56 25
-74 -20 -19 -47 -22 -195 -5 -206 18 -10 113 -13 132 -3 9 6 17 16 17 24 0 21
28 19 106 -11 68 -25 71 -26 184 -14 124 12 140 20 140 71 0 34 -12 43 -82 63
-87 25 -148 54 -148 70 0 10 -9 14 -27 13 -22 -2 -27 2 -25 16 3 15 -1 17 -17
12 -12 -4 -30 0 -43 9 -26 18 -38 20 -38 6z m39 -32 c11 -7 16 -19 13 -30 -5
-19 14 -26 20 -7 6 17 38 -2 38 -22 0 -20 16 -26 22 -8 2 7 17 5 43 -6 22 -10
45 -19 50 -20 69 -17 127 -40 132 -52 12 -30 -13 -47 -83 -59 -108 -19 -158
-17 -226 11 -64 26 -188 36 -188 15 0 -5 16 -10 35 -10 27 0 33 -3 28 -15 -4
-12 -18 -15 -57 -13 l-51 3 -3 72 c-2 47 2 84 12 108 l16 37 29 -22 c41 -28
106 -25 130 7 19 27 17 26 40 11z"/>
</g>
</svg>
